PathFileType	3	(X/Y/Z)	random_1__view2_aligned.trc
DataRate	CameraRate	NumFrames	NumMarkers	Units	OrigDataRate	OrigDataStartFrame	OrigNumFrames
100.0	100.0	7	19	mm	100.0	1796	1930
Frame#	Time	pelvis			neck			head			hip_left			hip_right			knee_left			knee_right			ankle_left			ankle_right			heel_left			heel_right			toe_left			toe_right			shoulder_left			shoulder_right			elbow_left			elbow_right			wrist_left			wrist_right			
		X1	Y1	Z1	X2	Y2	Z2	X3	Y3	Z3	X4	Y4	Z4	X5	Y5	Z5	X6	Y6	Z6	X7	Y7	Z7	X8	Y8	Z8	X9	Y9	Z9	X10	Y10	Z10	X11	Y11	Z11	X12	Y12	Z12	X13	Y13	Z13	X14	Y14	Z14	X15	Y15	Z15	X16	Y16	Z16	X17	Y17	Z17	X18	Y18	Z18	X19	Y19	Z19	
1796	17.95000	22.538690	953.916249	289.004019	104.220485	1528.968860	269.048891	256.288394	1565.062179	251.205950	4.996221	951.148016	218.861902	40.080788	956.684514	359.146062	100.427871	532.658435	102.650470	155.100383	527.550269	358.343295	88.552157	108.214391	52.058450	97.352900	113.750834	354.367428	62.741655	55.894330	65.996541	64.373403	63.201193	353.741318	252.758923	65.220919	-58.988215	285.005746	71.038361	337.221572	21.406401	1554.654121	125.739671	93.348959	1520.461228	433.661420	45.308813	1545.247604	-155.497432	213.223043	1450.563665	676.602169	241.168095	1438.753353	-291.946062	458.604919	1410.006775	772.199592
1797	17.96000	22.241956	954.227133	289.976284	103.478636	1529.734456	269.858161	255.566836	1566.230336	252.323511	4.643352	951.484073	219.844901	39.840140	956.970228	360.107588	99.901366	533.215769	102.707423	154.306414	527.709736	358.655239	88.512620	107.985511	51.362500	97.686414	113.788863	354.102812	62.717774	55.485372	65.345323	64.847718	63.130612	353.414803	253.086488	65.158286	-60.585897	285.588417	71.631722	336.969828	20.815920	1555.096324	126.297204	93.062699	1521.026307	434.566051	47.979284	1545.252174	-155.158116	216.454064	1449.686993	676.527920	246.032074	1439.312420	-289.460793	464.518005	1409.865798	769.231086
1798	17.97000	21.945222	954.538017	290.948550	102.736787	1530.500052	270.667431	254.845278	1567.398493	253.441072	4.290484	951.820130	220.827901	39.599493	957.255942	361.069114	99.374862	533.773103	102.764376	153.512444	527.869203	358.967182	88.473083	107.756631	50.666551	98.019928	113.826893	353.838196	62.693893	55.076413	64.694106	65.322032	63.060031	353.088288	253.414052	65.095653	-62.183579	286.171087	72.225083	336.718083	20.225439	1555.538526	126.854737	92.776439	1521.591387	435.470682	50.649755	1545.256744	-154.818800	219.685086	1448.810320	676.453671	250.896054	1439.871487	-286.975525	470.431091	1409.724822	766.262581
1799	17.98000	20.569855	954.391867	291.778285	101.477820	1530.281968	271.148693	253.394164	1567.524003	253.358943	2.831951	951.712994	221.667208	38.307385	957.070772	361.889297	99.002163	534.243709	102.969749	151.934765	527.664669	359.207334	84.940687	109.027677	51.326747	96.724438	113.619800	353.652800	58.841231	56.696062	65.438954	63.984411	62.928355	352.920788	248.860557	64.795163	-61.485781	284.693240	71.371146	336.297062	19.030537	1555.015940	127.429032	91.760698	1521.392803	436.036160	50.388782	1544.352105	-153.799058	218.240427	1446.456199	675.990291	251.211159	1437.943357	-283.965952	469.028410	1405.610127	762.340962
1800	17.99000	19.194488	954.245718	292.608019	100.218854	1530.063883	271.629955	251.943050	1567.649514	253.276814	1.373418	951.605857	222.506515	37.015276	956.885601	362.709480	98.629464	534.714316	103.175122	150.357085	527.460135	359.447485	81.408291	110.298724	51.986944	95.428949	113.412707	353.467405	54.988570	58.315710	66.183801	62.646790	62.796679	352.753288	244.307061	64.494673	-60.787983	283.215394	70.517209	335.876041	17.835635	1554.493354	128.003326	90.744956	1521.194219	436.601638	50.127808	1543.447465	-152.779315	216.795767	1444.102077	675.526910	251.526264	1436.015227	-280.956380	467.625729	1401.495432	758.419343
1801	18.00000	17.819121	954.099568	293.437754	98.959887	1529.845799	272.111217	250.491936	1567.775024	253.194684	-0.085115	951.498720	223.345822	35.723168	956.700431	363.529662	98.256765	535.184922	103.380495	148.779406	527.255602	359.687637	77.875895	111.569771	52.647140	94.133459	113.205613	353.282010	51.135908	59.935358	66.928648	61.309169	62.665003	352.585788	239.753566	64.194184	-60.090185	281.737547	69.663272	335.455020	16.640733	1553.970768	128.577620	89.729215	1520.995635	437.167116	49.866834	1542.542826	-151.759573	215.351108	1441.747955	675.063530	251.841369	1434.087097	-277.946807	466.223048	1397.380737	754.497724
1802	18.01000	16.443754	953.953418	294.267489	97.700921	1529.627714	272.592480	249.040822	1567.900534	253.112555	-1.543648	951.391584	224.185129	34.431060	956.515261	364.349845	97.884066	535.655528	103.585868	147.201727	527.051068	359.927789	74.343499	112.840817	53.307337	92.837970	112.998520	353.096615	47.283247	61.555007	67.673496	59.971548	62.533328	352.418288	235.200070	63.893694	-59.392387	280.259700	68.809335	335.033999	15.445831	1553.448181	129.151914	88.713474	1520.797051	437.732594	49.605860	1541.638187	-150.739831	213.906448	1439.393834	674.600149	252.156475	1432.158967	-274.937234	464.820366	1393.266042	750.576105
